<mxfile host="app.diagrams.net" modified="2023-12-10T12:25:43.158Z" agent="Mozilla/5.0 (Windows NT 10.0; Win64; x64) AppleWebKit/537.36 (KHTML, like Gecko) Chrome/118.0.5993.2471 YaBrowser/23.11.0.2471 Yowser/2.5 Safari/537.36" etag="yzt626wJnqYmRX19wLvE" version="22.1.7" type="github">
  <diagram name="Страница — 1" id="A-hOsSmBaA4FlEMWKKBV">
    <mxGraphModel dx="995" dy="609" grid="1" gridSize="10" guides="1" tooltips="1" connect="1" arrows="1" fold="1" page="1" pageScale="1" pageWidth="827" pageHeight="1169" math="0" shadow="0">
      <root>
        <mxCell id="0" />
        <mxCell id="1" parent="0" />
        <mxCell id="82NmPV-V0IVHOPyE-yO_-5" value="" style="edgeStyle=orthogonalEdgeStyle;rounded=0;orthogonalLoop=1;jettySize=auto;html=1;" parent="1" source="82NmPV-V0IVHOPyE-yO_-1" target="82NmPV-V0IVHOPyE-yO_-4" edge="1">
          <mxGeometry relative="1" as="geometry" />
        </mxCell>
        <mxCell id="82NmPV-V0IVHOPyE-yO_-1" value="Начало" style="rounded=1;whiteSpace=wrap;html=1;fontSize=12;glass=0;strokeWidth=1;shadow=0;fillColor=#dae8fc;strokeColor=#6c8ebf;" parent="1" vertex="1">
          <mxGeometry x="145.0000000000001" y="152" width="120" height="40" as="geometry" />
        </mxCell>
        <mxCell id="82NmPV-V0IVHOPyE-yO_-10" value="" style="edgeStyle=orthogonalEdgeStyle;rounded=0;orthogonalLoop=1;jettySize=auto;html=1;" parent="1" source="82NmPV-V0IVHOPyE-yO_-4" edge="1">
          <mxGeometry relative="1" as="geometry">
            <mxPoint x="205.10000000000002" y="282" as="targetPoint" />
          </mxGeometry>
        </mxCell>
        <mxCell id="82NmPV-V0IVHOPyE-yO_-4" value="V = (V1 + V2) / 2;" style="rounded=0;whiteSpace=wrap;html=1;fillColor=#d5e8d4;strokeColor=#82b366;" parent="1" vertex="1">
          <mxGeometry x="145" y="232" width="120" height="30" as="geometry" />
        </mxCell>
        <mxCell id="82NmPV-V0IVHOPyE-yO_-6" value="Вспомогательные функции" style="text;html=1;align=center;verticalAlign=middle;resizable=0;points=[];autosize=1;strokeColor=none;fillColor=none;" parent="1" vertex="1">
          <mxGeometry x="340" y="20" width="170" height="30" as="geometry" />
        </mxCell>
        <mxCell id="82NmPV-V0IVHOPyE-yO_-19" value="" style="edgeStyle=orthogonalEdgeStyle;rounded=0;orthogonalLoop=1;jettySize=auto;html=1;" parent="1" source="82NmPV-V0IVHOPyE-yO_-15" target="82NmPV-V0IVHOPyE-yO_-18" edge="1">
          <mxGeometry relative="1" as="geometry" />
        </mxCell>
        <mxCell id="82NmPV-V0IVHOPyE-yO_-15" value="return (m * (V2 - V1)) / (P - Cx * (p * V * V / 2) * S);" style="rounded=0;whiteSpace=wrap;html=1;fillColor=#d5e8d4;strokeColor=#82b366;" parent="1" vertex="1">
          <mxGeometry x="60" y="392" width="290" height="40" as="geometry" />
        </mxCell>
        <mxCell id="82NmPV-V0IVHOPyE-yO_-18" value="Конец" style="rounded=1;whiteSpace=wrap;html=1;fontSize=12;glass=0;strokeWidth=1;shadow=0;fillColor=#dae8fc;strokeColor=#6c8ebf;" parent="1" vertex="1">
          <mxGeometry x="145.0000000000001" y="462" width="120" height="40" as="geometry" />
        </mxCell>
        <mxCell id="82NmPV-V0IVHOPyE-yO_-23" style="edgeStyle=orthogonalEdgeStyle;rounded=0;orthogonalLoop=1;jettySize=auto;html=1;entryX=0.5;entryY=0;entryDx=0;entryDy=0;" parent="1" source="82NmPV-V0IVHOPyE-yO_-20" target="82NmPV-V0IVHOPyE-yO_-15" edge="1">
          <mxGeometry relative="1" as="geometry" />
        </mxCell>
        <mxCell id="82NmPV-V0IVHOPyE-yO_-20" value="g = acceleration_free_fall(H);&lt;br style=&quot;border-color: var(--border-color);&quot;&gt;p = air_density(H);&lt;br&gt;P = thrust(H, V);&lt;br style=&quot;border-color: var(--border-color);&quot;&gt;alpha = (m * g - Cy_b * (p * V * V / 2) * S) / (P / 57.3 + Cy_k * (p * V * V / 2) * S);&lt;br style=&quot;border-color: var(--border-color);&quot;&gt;frontal_resistance(alpha, &amp;amp;Cx, &amp;amp;Cy);" style="rounded=0;whiteSpace=wrap;html=1;fillColor=#d5e8d4;strokeColor=#82b366;" parent="1" vertex="1">
          <mxGeometry x="70" y="282" width="270" height="90" as="geometry" />
        </mxCell>
        <mxCell id="82NmPV-V0IVHOPyE-yO_-24" value="" style="edgeStyle=orthogonalEdgeStyle;rounded=0;orthogonalLoop=1;jettySize=auto;html=1;" parent="1" source="82NmPV-V0IVHOPyE-yO_-25" target="82NmPV-V0IVHOPyE-yO_-27" edge="1">
          <mxGeometry relative="1" as="geometry" />
        </mxCell>
        <mxCell id="82NmPV-V0IVHOPyE-yO_-25" value="Начало" style="rounded=1;whiteSpace=wrap;html=1;fontSize=12;glass=0;strokeWidth=1;shadow=0;fillColor=#dae8fc;strokeColor=#6c8ebf;" parent="1" vertex="1">
          <mxGeometry x="555.0000000000001" y="152" width="120" height="40" as="geometry" />
        </mxCell>
        <mxCell id="82NmPV-V0IVHOPyE-yO_-34" value="" style="edgeStyle=orthogonalEdgeStyle;rounded=0;orthogonalLoop=1;jettySize=auto;html=1;" parent="1" source="82NmPV-V0IVHOPyE-yO_-27" target="82NmPV-V0IVHOPyE-yO_-33" edge="1">
          <mxGeometry relative="1" as="geometry" />
        </mxCell>
        <mxCell id="82NmPV-V0IVHOPyE-yO_-27" value="H = (H1 + H2) / 2;" style="rounded=0;whiteSpace=wrap;html=1;fillColor=#d5e8d4;strokeColor=#82b366;" parent="1" vertex="1">
          <mxGeometry x="555" y="212" width="120" height="30" as="geometry" />
        </mxCell>
        <mxCell id="82NmPV-V0IVHOPyE-yO_-28" value="double lift_time(double H1, double H2, double V)" style="text;html=1;align=center;verticalAlign=middle;resizable=0;points=[];autosize=1;strokeColor=none;fillColor=none;" parent="1" vertex="1">
          <mxGeometry x="490" y="100" width="280" height="30" as="geometry" />
        </mxCell>
        <mxCell id="82NmPV-V0IVHOPyE-yO_-29" value="" style="edgeStyle=orthogonalEdgeStyle;rounded=0;orthogonalLoop=1;jettySize=auto;html=1;" parent="1" source="82NmPV-V0IVHOPyE-yO_-30" target="82NmPV-V0IVHOPyE-yO_-31" edge="1">
          <mxGeometry relative="1" as="geometry" />
        </mxCell>
        <mxCell id="82NmPV-V0IVHOPyE-yO_-30" value="return (57.3 * (H2 - H1)) / (V * teta);" style="rounded=0;whiteSpace=wrap;html=1;fillColor=#d5e8d4;strokeColor=#82b366;" parent="1" vertex="1">
          <mxGeometry x="470" y="392" width="290" height="40" as="geometry" />
        </mxCell>
        <mxCell id="82NmPV-V0IVHOPyE-yO_-31" value="Конец" style="rounded=1;whiteSpace=wrap;html=1;fontSize=12;glass=0;strokeWidth=1;shadow=0;fillColor=#dae8fc;strokeColor=#6c8ebf;" parent="1" vertex="1">
          <mxGeometry x="555.0000000000001" y="462" width="120" height="40" as="geometry" />
        </mxCell>
        <mxCell id="82NmPV-V0IVHOPyE-yO_-32" style="edgeStyle=orthogonalEdgeStyle;rounded=0;orthogonalLoop=1;jettySize=auto;html=1;entryX=0.5;entryY=0;entryDx=0;entryDy=0;" parent="1" source="82NmPV-V0IVHOPyE-yO_-33" target="82NmPV-V0IVHOPyE-yO_-30" edge="1">
          <mxGeometry relative="1" as="geometry" />
        </mxCell>
        <mxCell id="82NmPV-V0IVHOPyE-yO_-33" value="g = acceleration_free_fall(H);&lt;br style=&quot;border-color: var(--border-color);&quot;&gt;p = air_density(H);&lt;br&gt;P = thrust(H, V);&lt;br style=&quot;border-color: var(--border-color);&quot;&gt;alpha = (m * g - Cy_b * (p * V * V / 2) * S) / (P / 57.3 + Cy_k * (p * V * V / 2) * S);&lt;br style=&quot;border-color: var(--border-color);&quot;&gt;frontal_resistance(alpha, &amp;amp;Cx, &amp;amp;Cy);&lt;br&gt;teta = ((P - Cx * (p * V * V / 2) * S ) * 57.3) / (m * g);" style="rounded=0;whiteSpace=wrap;html=1;fillColor=#d5e8d4;strokeColor=#82b366;" parent="1" vertex="1">
          <mxGeometry x="472.5" y="262" width="285" height="110" as="geometry" />
        </mxCell>
        <mxCell id="82NmPV-V0IVHOPyE-yO_-36" value="" style="edgeStyle=orthogonalEdgeStyle;rounded=0;orthogonalLoop=1;jettySize=auto;html=1;" parent="1" source="82NmPV-V0IVHOPyE-yO_-37" target="82NmPV-V0IVHOPyE-yO_-39" edge="1">
          <mxGeometry relative="1" as="geometry" />
        </mxCell>
        <mxCell id="82NmPV-V0IVHOPyE-yO_-37" value="Начало" style="rounded=1;whiteSpace=wrap;html=1;fontSize=12;glass=0;strokeWidth=1;shadow=0;fillColor=#dae8fc;strokeColor=#6c8ebf;" parent="1" vertex="1">
          <mxGeometry x="350.0000000000001" y="672" width="120" height="40" as="geometry" />
        </mxCell>
        <mxCell id="82NmPV-V0IVHOPyE-yO_-38" value="" style="edgeStyle=orthogonalEdgeStyle;rounded=0;orthogonalLoop=1;jettySize=auto;html=1;" parent="1" source="82NmPV-V0IVHOPyE-yO_-39" edge="1">
          <mxGeometry relative="1" as="geometry">
            <mxPoint x="410.1" y="802" as="targetPoint" />
          </mxGeometry>
        </mxCell>
        <mxCell id="82NmPV-V0IVHOPyE-yO_-39" value="V = (V1 + V2) / 2;&lt;br&gt;H = (H1 + H2) / 2;" style="rounded=0;whiteSpace=wrap;html=1;fillColor=#d5e8d4;strokeColor=#82b366;" parent="1" vertex="1">
          <mxGeometry x="350" y="740" width="120" height="42" as="geometry" />
        </mxCell>
        <mxCell id="82NmPV-V0IVHOPyE-yO_-40" value="acceleration_lift_time(double V1, double V2, double H1, double H2)&amp;nbsp;" style="text;html=1;align=center;verticalAlign=middle;resizable=0;points=[];autosize=1;strokeColor=none;fillColor=none;" parent="1" vertex="1">
          <mxGeometry x="230" y="620" width="390" height="30" as="geometry" />
        </mxCell>
        <mxCell id="82NmPV-V0IVHOPyE-yO_-41" value="" style="edgeStyle=orthogonalEdgeStyle;rounded=0;orthogonalLoop=1;jettySize=auto;html=1;" parent="1" source="82NmPV-V0IVHOPyE-yO_-42" target="82NmPV-V0IVHOPyE-yO_-43" edge="1">
          <mxGeometry relative="1" as="geometry" />
        </mxCell>
        <mxCell id="82NmPV-V0IVHOPyE-yO_-42" value="return (1 / (k * sin_teta)) * log(V2 / V1);" style="rounded=0;whiteSpace=wrap;html=1;fillColor=#d5e8d4;strokeColor=#82b366;" parent="1" vertex="1">
          <mxGeometry x="269" y="970" width="290" height="40" as="geometry" />
        </mxCell>
        <mxCell id="82NmPV-V0IVHOPyE-yO_-43" value="Конец" style="rounded=1;whiteSpace=wrap;html=1;fontSize=12;glass=0;strokeWidth=1;shadow=0;fillColor=#dae8fc;strokeColor=#6c8ebf;" parent="1" vertex="1">
          <mxGeometry x="350.0000000000001" y="1040" width="120" height="40" as="geometry" />
        </mxCell>
        <mxCell id="82NmPV-V0IVHOPyE-yO_-44" style="edgeStyle=orthogonalEdgeStyle;rounded=0;orthogonalLoop=1;jettySize=auto;html=1;entryX=0.5;entryY=0;entryDx=0;entryDy=0;" parent="1" source="82NmPV-V0IVHOPyE-yO_-45" target="82NmPV-V0IVHOPyE-yO_-42" edge="1">
          <mxGeometry relative="1" as="geometry" />
        </mxCell>
        <mxCell id="82NmPV-V0IVHOPyE-yO_-45" value="g = acceleration_free_fall(H);&lt;br style=&quot;border-color: var(--border-color);&quot;&gt;p = air_density(H);&lt;br&gt;P = thrust(H, V);&lt;br style=&quot;border-color: var(--border-color);&quot;&gt;alpha = (m * g - Cy_b * (p * V * V / 2) * S) / (P / 57.3 + Cy_k * (p * V * V / 2) * S);&lt;br style=&quot;border-color: var(--border-color);&quot;&gt;frontal_resistance(alpha, &amp;amp;Cx, &amp;amp;Cy);&lt;br&gt;k = (V2 - V1) / (H2 - H1);&lt;br&gt;sin_teta = (P - Cx * (p * V * V / 2) * S) / (m * (k * V + g));" style="rounded=0;whiteSpace=wrap;html=1;fillColor=#d5e8d4;strokeColor=#82b366;" parent="1" vertex="1">
          <mxGeometry x="275" y="802" width="270" height="138" as="geometry" />
        </mxCell>
        <mxCell id="82NmPV-V0IVHOPyE-yO_-46" value="Разгон" style="text;html=1;align=center;verticalAlign=middle;resizable=0;points=[];autosize=1;strokeColor=none;fillColor=none;" parent="1" vertex="1">
          <mxGeometry x="175" y="70" width="60" height="30" as="geometry" />
        </mxCell>
        <mxCell id="82NmPV-V0IVHOPyE-yO_-47" value="Подъем" style="text;html=1;align=center;verticalAlign=middle;resizable=0;points=[];autosize=1;strokeColor=none;fillColor=none;" parent="1" vertex="1">
          <mxGeometry x="580" y="60" width="70" height="30" as="geometry" />
        </mxCell>
        <mxCell id="82NmPV-V0IVHOPyE-yO_-48" value="Разгон-подъем" style="text;html=1;align=center;verticalAlign=middle;resizable=0;points=[];autosize=1;strokeColor=none;fillColor=none;" parent="1" vertex="1">
          <mxGeometry x="355" y="585" width="110" height="30" as="geometry" />
        </mxCell>
        <mxCell id="82NmPV-V0IVHOPyE-yO_-49" value="double acceleration_time(double V1, double V2, double H)" style="text;html=1;align=center;verticalAlign=middle;resizable=0;points=[];autosize=1;strokeColor=none;fillColor=none;" parent="1" vertex="1">
          <mxGeometry x="60" y="100" width="330" height="30" as="geometry" />
        </mxCell>
      </root>
    </mxGraphModel>
  </diagram>
</mxfile>
